<?xml version="1.0" encoding="UTF-8"?>
<svg version="1.1" xmlns="http://www.w3.org/2000/svg" width="64" height="64">
<path d="M0 0 C3.8823434 2.85842865 6.81001839 5.82582748 9.48828125 9.83203125 C9.92011719 10.45207031 10.35195313 11.07210938 10.796875 11.7109375 C14.96558776 19.08191405 14.67540439 28.65530454 13.48828125 36.83203125 C11.04361228 45.02256452 6.57174916 51.09652849 -0.51171875 55.83203125 C-1.13175781 56.26386719 -1.75179687 56.69570313 -2.390625 57.140625 C-10.33998413 61.6364465 -21.69562071 61.16390194 -30.39453125 59.171875 C-32.66420782 58.25846857 -34.50609535 57.22887915 -36.51171875 55.83203125 C-37.20394531 55.36925781 -37.89617188 54.90648437 -38.609375 54.4296875 C-45.05356784 49.50319241 -49.53289575 42.80865815 -50.85742188 34.72119141 C-51.92774462 24.38448203 -50.82824576 15.4111948 -44.51171875 6.83203125 C-42.08180954 4.0353433 -39.58802295 1.8886294 -36.51171875 -0.16796875 C-35.58166016 -0.81572266 -35.58166016 -0.81572266 -34.6328125 -1.4765625 C-24.45608447 -7.2320897 -9.7207284 -5.7410111 0 0 Z " fill="#B21516" transform="translate(50.51171875,4.16796875)"/>
<path d="M0 0 C0 0.66 0 1.32 0 2 C0.56847656 1.97679687 1.13695313 1.95359375 1.72265625 1.9296875 C6.8199708 1.8105516 11.21978606 1.99231015 16 4 C18.31718077 6.9151629 19 8.26582006 19 12 C19.804375 12.04125 20.60875 12.0825 21.4375 12.125 C26.51085502 13.3710872 30.63202948 14.85761544 34 19 C35.05418481 24.51370602 34.9216749 29.95644719 33.2890625 35.34765625 C31.39741592 37.77240323 29.67839003 37.84707056 26.6875 38.3125 C25.27017578 38.55419922 25.27017578 38.55419922 23.82421875 38.80078125 C20.80983886 39.01341386 18.82678064 39.09878185 16 38 C14.19921875 35.34765625 14.19921875 35.34765625 12.6875 32.0625 C12.17574219 30.98097656 11.66398437 29.89945313 11.13671875 28.78515625 C10 26 10 26 10 24 C1.95374368 22.88734382 1.95374368 22.88734382 -6 24 C-9.48460922 27.55212028 -11.28807333 31.36123097 -13 36 C-18.75 34.25 -18.75 34.25 -21 32 C-22.2012539 24.76127521 -20.51307793 16.89561132 -16.55859375 10.765625 C-12.72067018 6.02832723 -6.50083915 0 0 0 Z " fill="#CC0A0C" transform="translate(22,1)"/>
<path d="M0 0 C1.125 3.75 1.125 3.75 0 6 C-0.06950541 7.54023996 -0.08452357 9.08334988 -0.0625 10.625 C-0.05347656 11.44226562 -0.04445312 12.25953125 -0.03515625 13.1015625 C-0.02355469 13.72804688 -0.01195313 14.35453125 0 15 C3.465 16.98 3.465 16.98 7 19 C7.3403125 17.7315625 7.3403125 17.7315625 7.6875 16.4375 C10.83499163 8.19406955 10.83499163 8.19406955 14 6 C18.95218883 5.18816577 25.45046529 4.1983288 29.7578125 7.2421875 C33.16453415 12.06302003 35.92582295 16.77468843 36.125 22.75 C34.80063425 26.57594549 33.25014841 29.55377522 30 32 C26.86022385 32.72276301 23.88805561 32.57203499 20.6875 32.375 C19.85154297 32.34792969 19.01558594 32.32085937 18.15429688 32.29296875 C16.10174753 32.22259563 14.05053409 32.11498322 12 32 C12.04860756 37.44537796 12.04860756 37.44537796 14.84765625 41.65625 C15.57855469 41.9346875 16.30945313 42.213125 17.0625 42.5 C17.79597656 42.7990625 18.52945312 43.098125 19.28515625 43.40625 C19.85105469 43.6021875 20.41695312 43.798125 21 44 C18 45 18 45 15.984375 44.28515625 C8.22507611 40.03924619 2.05263115 34.21673715 -1.34765625 25.8984375 C-3.13585254 17.95327791 -3.70689418 7.41378836 0 0 Z " fill="#CE0F12" transform="translate(2,18)"/>
<path d="M0 0 C1.010625 0.45375 2.02125 0.9075 3.0625 1.375 C3.84496094 1.68566406 4.62742187 1.99632812 5.43359375 2.31640625 C8.29189477 3.73886807 10.04026113 4.88777779 12.0625 7.375 C13.11668481 12.88870602 12.9841749 18.33144719 11.3515625 23.72265625 C9.45991592 26.14740323 7.74089003 26.22207056 4.75 26.6875 C3.33267578 26.92919922 3.33267578 26.92919922 1.88671875 27.17578125 C-3.09431468 27.52714045 -3.09431468 27.52714045 -5.9375 26.375 C-7.536832 24.06418946 -8.69790865 22.07043553 -9.875 19.5625 C-10.20306641 18.93279297 -10.53113281 18.30308594 -10.86914062 17.65429688 C-13.11546483 13.05053996 -13.11546483 13.05053996 -12.36328125 10.1953125 C-4.86404221 0.62094156 -4.86404221 0.62094156 0 0 Z " fill="#D0D0D0" transform="translate(43.9375,12.625)"/>
<path d="M0 0 C12.41726014 -0.74503561 22.17921936 -0.66689497 32.14453125 7.828125 C36.67952662 12.52542546 38.97341471 17.85730671 41 24 C40.34 24 39.68 24 39 24 C39 23.34 39 22.68 39 22 C37.35 21.67 35.7 21.34 34 21 C34 23.97 34 26.94 34 30 C33.67 30 33.34 30 33 30 C33 26.7 33 23.4 33 20 C31.68 19.34 30.36 18.68 29 18 C27.2504449 16.98326294 25.51465884 15.94632862 23.78125 14.90234375 C22.00524636 13.89413602 22.00524636 13.89413602 19.86328125 13.625 C19.24839844 13.41875 18.63351563 13.2125 18 13 C17.26171875 11.22265625 17.26171875 11.22265625 16.6875 9.0625 C15.84663517 6.77664737 15.84663517 6.77664737 14 5 C9.02118372 3.65100625 4.13924417 3.25568379 -1 3 C-0.67 2.01 -0.34 1.02 0 0 Z " fill="#BF0A0C" transform="translate(23,0)"/>
<path d="M0 0 C1.125 3.75 1.125 3.75 0 6 C-0.06950541 7.54023996 -0.08452357 9.08334988 -0.0625 10.625 C-0.05347656 11.44226562 -0.04445312 12.25953125 -0.03515625 13.1015625 C-0.02355469 13.72804688 -0.01195313 14.35453125 0 15 C3.465 16.98 3.465 16.98 7 19 C7.3403125 17.7315625 7.3403125 17.7315625 7.6875 16.4375 C9.25736398 12.32595149 11.34299048 9.49606516 14 6 C15 8 15 8 14.3125 10.8125 C12.95279719 14.1146354 11.27886754 16.28006132 9 19 C8.67 19.99 8.34 20.98 8 22 C8.99 22.33 9.98 22.66 11 23 C11.33 25.31 11.66 27.62 12 30 C13.65 30.33 15.3 30.66 17 31 C17 31.33 17 31.66 17 32 C15.35 32 13.7 32 12 32 C11.97742455 36.12224057 11.97742455 36.12224057 13 40 C15.46750418 41.89888271 18.06977646 42.98543513 21 44 C18 45 18 45 15.984375 44.28515625 C8.22507611 40.03924619 2.05263115 34.21673715 -1.34765625 25.8984375 C-3.13585254 17.95327791 -3.70689418 7.41378836 0 0 Z " fill="#AA0A0B" transform="translate(2,18)"/>
<path d="M0 0 C0.99 0.33 1.98 0.66 3 1 C3.86022974 11.74331367 3.86022974 11.74331367 0.8125 15.5625 C-4.22896867 19.93177285 -8.21218387 20.24417636 -14.6953125 20.4609375 C-17 20 -17 20 -18.79296875 18.1484375 C-20.23554785 15.58074008 -20.24172025 13.90064298 -20 11 C-18.8553125 11.2784375 -18.8553125 11.2784375 -17.6875 11.5625 C-14.91032625 12.22819173 -14.91032625 12.22819173 -12 11 C-11.71125 10.195625 -11.4225 9.39125 -11.125 8.5625 C-10 6 -10 6 -7.5625 4.6875 C-5 4 -5 4 -2 4 C-2 3.34 -2 2.68 -2 2 C-1.34 2 -0.68 2 0 2 C0 1.34 0 0.68 0 0 Z " fill="#C40709" transform="translate(53,39)"/>
<path d="M0 0 C5.22977941 7.84466912 5.22977941 7.84466912 4.8046875 11.83203125 C3.68214429 14.85635882 2.09152196 17.48327235 0.4375 20.25 C-0.20316406 21.32765625 -0.84382812 22.4053125 -1.50390625 23.515625 C-1.99761719 24.33546875 -2.49132813 25.1553125 -3 26 C-8.75 24.25 -8.75 24.25 -11 22 C-11.9151658 16.16433239 -10.95425842 11.12071459 -8 6 C-5.61508676 3.5451293 -3.07786943 1.53893471 0 0 Z " fill="#C6C6C6" transform="translate(12,11)"/>
<path d="M0 0 C16.25650224 -0.5793722 16.25650224 -0.5793722 20.53125 3.29296875 C21.99167583 5.83081658 23.11922275 8.21087206 24 11 C19.18042775 13.7973741 14.43179437 13.75198228 9 13 C5.75163389 11.6605157 2.88654622 9.9956369 0 8 C0 5.36 0 2.72 0 0 Z " fill="#C4C4C4" transform="translate(14,50)"/>
<path d="M0 0 C0.495 0.99 0.495 0.99 1 2 C-1.93805933 8.58693947 -6.00064037 14.00042692 -12 18 C-12.598125 18.4125 -13.19625 18.825 -13.8125 19.25 C-21.4421733 23.54169123 -30.54446885 22.32837014 -39 22 C-39 21.67 -39 21.34 -39 21 C-38.24074219 20.96261719 -37.48148438 20.92523438 -36.69921875 20.88671875 C-35.70535156 20.82097656 -34.71148437 20.75523438 -33.6875 20.6875 C-32.70136719 20.62949219 -31.71523438 20.57148437 -30.69921875 20.51171875 C-27.64195355 19.93212144 -27.06707973 19.17557287 -25 17 C-22.94921875 16.59375 -22.94921875 16.59375 -20.6875 16.5 C-16.41239339 16.10633105 -13.57726314 15.56629747 -10 13 C-8.06543636 10.53291131 -6.3167821 8.00661511 -4.61328125 5.375 C-3.21065629 3.31011871 -1.83029508 1.68099609 0 0 Z " fill="#8B090A" transform="translate(62,42)"/>
<path d="M0 0 C0 0.66 0 1.32 0 2 C0.66 2 1.32 2 2 2 C2.33 3.65 2.66 5.3 3 7 C3.66 7 4.32 7 5 7 C4.67 7.66 4.34 8.32 4 9 C-0.29 8.67 -4.58 8.34 -9 8 C-11 3 -11 3 -11 0 C-7.07632508 -2.82504594 -4.32061114 -1.49559616 0 0 Z " fill="#D32427" transform="translate(26,16)"/>
<path d="M0 0 C0 0.66 0 1.32 0 2 C1.65 2 3.3 2 5 2 C5 2.33 5 2.66 5 3 C3.9275 3.28875 2.855 3.5775 1.75 3.875 C0.5125 4.24625 -0.725 4.6175 -2 5 C-3.175625 5.309375 -3.175625 5.309375 -4.375 5.625 C-6.47612252 7.4028729 -6.40019472 8.44000814 -6.75 11.125 C-6.8325 12.40375 -6.915 13.6825 -7 15 C-7.99 13.68 -8.98 12.36 -10 11 C-10.928125 11.61875 -11.85625 12.2375 -12.8125 12.875 C-14.875 14.25 -16.9375 15.625 -19 17 C-16.91279932 10.11223777 -12.39437296 5.5551951 -6.25 2.0625 C-2.35048232 0 -2.35048232 0 0 0 Z " fill="#B60A0B" transform="translate(22,1)"/>
<path d="M0 0 C0.66 0.33 1.32 0.66 2 1 C1.66282976 4.82126269 0.47143966 7.91502933 -2.078125 10.83203125 C-6.42146706 13.47158263 -12.13820259 12.6257759 -17 12 C-19.90625 10.96875 -19.90625 10.96875 -22 10 C-22 9.34 -22 8.68 -22 8 C-17.692037 7.79962963 -14.9548401 8.41806396 -11 10 C-7.79129767 10.16757757 -7.79129767 10.16757757 -5 10 C-5 9.01 -5 8.02 -5 7 C-4.34 7 -3.68 7 -3 7 C-2.690625 6.030625 -2.38125 5.06125 -2.0625 4.0625 C-1 1 -1 1 0 0 Z " fill="#CC0507" transform="translate(36,38)"/>
<path d="M0 0 C2.95857409 -0.05379226 5.91617721 -0.09357093 8.875 -0.125 C9.71675781 -0.14175781 10.55851562 -0.15851562 11.42578125 -0.17578125 C12.23144531 -0.18222656 13.03710938 -0.18867187 13.8671875 -0.1953125 C14.98262939 -0.21102295 14.98262939 -0.21102295 16.12060547 -0.22705078 C18 0 18 0 20 2 C17.23434618 2.92188461 15.61716298 3.11785222 12.76953125 3.09765625 C11.96708984 3.09443359 11.16464844 3.09121094 10.33789062 3.08789062 C9.50451172 3.07951172 8.67113281 3.07113281 7.8125 3.0625 C6.96751953 3.05798828 6.12253906 3.05347656 5.25195312 3.04882812 C3.16793845 3.03705403 1.08396023 3.0191189 -1 3 C-0.67 2.01 -0.34 1.02 0 0 Z " fill="#BCBCBC" transform="translate(23,0)"/>
<path d="M0 0 C1.32 0.33 2.64 0.66 4 1 C4.75 2.625 4.75 2.625 5 5 C3.25 8.25 3.25 8.25 1 11 C0.01 11 -0.98 11 -2 11 C-2.25 3.375 -2.25 3.375 0 0 Z " fill="#DC2528" transform="translate(29,36)"/>
<path d="M0 0 C1 2 1 2 0.3125 4.8125 C-1.04720281 8.1146354 -2.72113246 10.28006132 -5 13 C-5.33 13.99 -5.66 14.98 -6 16 C-5.01 16.33 -4.02 16.66 -3 17 C-2.67 19.31 -2.34 21.62 -2 24 C-4.33936818 21.87330165 -5.80653848 19.93775144 -7 17 C-7 16.01 -7 15.02 -7 14 C-7.66 13.67 -8.32 13.34 -9 13 C-8.34 13 -7.68 13 -7 13 C-6.773125 12.154375 -6.54625 11.30875 -6.3125 10.4375 C-4.74263602 6.32595149 -2.65700952 3.49606516 0 0 Z " fill="#7B1112" transform="translate(16,24)"/>
<path d="M0 0 C0.99 0.33 1.98 0.66 3 1 C2.34 1 1.68 1 1 1 C0.566875 2.3921875 0.566875 2.3921875 0.125 3.8125 C-1 7 -1 7 -3 10 C-2.34 10.33 -1.68 10.66 -1 11 C-1.61875 10.79375 -2.2375 10.5875 -2.875 10.375 C-3.57625 10.25125 -4.2775 10.1275 -5 10 C-5.66 10.66 -6.32 11.32 -7 12 C-7 11.34 -7 10.68 -7 10 C-11.29 10 -15.58 10 -20 10 C-20 9.67 -20 9.34 -20 9 C-19.11957031 9.00902344 -18.23914063 9.01804687 -17.33203125 9.02734375 C-10.7678786 9.12560677 -10.7678786 9.12560677 -5.09375 6.41015625 C-3.62285046 4.29485644 -3.62285046 4.29485644 -2 1 C-1.34 0.67 -0.68 0.34 0 0 Z " fill="#9B1D1F" transform="translate(39,41)"/>
<path d="M0 0 C0.33 0.99 0.66 1.98 1 3 C-0.47613985 4.50297876 -1.95599157 6.00231285 -3.4375 7.5 C-4.26121094 8.3353125 -5.08492187 9.170625 -5.93359375 10.03125 C-8 12 -8 12 -9 12 C-9.56622792 7.18706269 -7.90177285 4.75523546 -5 1 C-3 0 -3 0 0 0 Z " fill="#A72325" transform="translate(40,11)"/>
<path d="M0 0 C0.33 0.66 0.66 1.32 1 2 C-1.83564466 8.23400481 -5.44951453 13.03536752 -11 17 C-11 13.03053405 -9.54197384 11.65626763 -7.1875 8.5 C-6.47980469 7.5409375 -5.77210937 6.581875 -5.04296875 5.59375 C-3.44638228 3.56672626 -1.88031112 1.75574793 0 0 Z " fill="#9F9E9E" transform="translate(62,42)"/>
<path d="M0 0 C1.37478516 0.01740234 1.37478516 0.01740234 2.77734375 0.03515625 C3.69644531 0.04417969 4.61554687 0.05320312 5.5625 0.0625 C6.27277344 0.07410156 6.98304687 0.08570312 7.71484375 0.09765625 C7.38484375 1.08765625 7.05484375 2.07765625 6.71484375 3.09765625 C3.33984375 4.22265625 3.33984375 4.22265625 -0.28515625 5.09765625 C-1.27515625 5.42765625 -2.26515625 5.75765625 -3.28515625 6.09765625 C-3.32787725 4.4315372 -3.32579457 2.7638274 -3.28515625 1.09765625 C-2.28515625 0.09765625 -2.28515625 0.09765625 0 0 Z " fill="#D7282A" transform="translate(19.28515625,26.90234375)"/>
<path d="M0 0 C0.66 0.33 1.32 0.66 2 1 C1.01 2.485 1.01 2.485 0 4 C0.99 4 1.98 4 3 4 C3.33 5.98 3.66 7.96 4 10 C3.01 8.68 2.02 7.36 1 6 C0.071875 6.61875 -0.85625 7.2375 -1.8125 7.875 C-3.875 9.25 -5.9375 10.625 -8 12 C-6.49087042 7.01987239 -3.44338151 3.75740058 0 0 Z " fill="#912223" transform="translate(11,6)"/>
<path d="M0 0 C0 2.31 0 4.62 0 7 C1.216875 6.979375 2.43375 6.95875 3.6875 6.9375 C6.91977322 6.93175884 9.84934741 7.21233685 13 8 C12.67 8.66 12.34 9.32 12 10 C7.71 9.67 3.42 9.34 -1 9 C-3 4 -3 4 -3 1 C-1 0 -1 0 0 0 Z " fill="#831D1E" transform="translate(18,15)"/>
<path d="M0 0 C5.04969516 0.44556134 7.47618687 2.55813601 11 6 C11 6.99 11 7.98 11 9 C7.22272911 7.18690997 3.62730178 5.0926741 0 3 C0 2.01 0 1.02 0 0 Z " fill="#B02A2B" transform="translate(45,11)"/>
<path d="M0 0 C2.47859908 2.2008849 3.61210366 4.06372969 4.6875 7.1875 C4.93886719 7.90292969 5.19023438 8.61835938 5.44921875 9.35546875 C5.63097656 9.89816406 5.81273437 10.44085938 6 11 C5.34 11 4.68 11 4 11 C4 10.34 4 9.68 4 9 C2.35 8.67 0.7 8.34 -1 8 C-1 10.97 -1 13.94 -1 17 C-1.33 17 -1.66 17 -2 17 C-2.08121924 15.39667209 -2.13929134 13.79215974 -2.1875 12.1875 C-2.22230469 11.29417969 -2.25710937 10.40085937 -2.29296875 9.48046875 C-1.94521746 6.53617453 -1.1457129 5.91744557 1 4 C0.77242269 1.83700789 0.77242269 1.83700789 0 0 Z " fill="#834344" transform="translate(58,13)"/>
<path d="M0 0 C-1.65 0.66 -3.3 1.32 -5 2 C-3.69844994 6.07964281 -3.69844994 6.07964281 -2 10 C-2.99 10 -3.98 10 -5 10 C-5.21914063 9.43410156 -5.43828125 8.86820313 -5.6640625 8.28515625 C-6.63933043 6.02935359 -7.59234148 4.01764387 -9 2 C-12.12133744 0.86521065 -12.12133744 0.86521065 -15 1 C-15 0.67 -15 0.34 -15 0 C-13.06544546 -0.38991022 -11.12718172 -0.76145349 -9.1875 -1.125 C-8.10855469 -1.33382813 -7.02960937 -1.54265625 -5.91796875 -1.7578125 C-3 -2 -3 -2 0 0 Z " fill="#7C2223" transform="translate(46,3)"/>
<path d="M0 0 C0.66 0 1.32 0 2 0 C2 0.7425 2 1.485 2 2.25 C3.20665714 5.56830714 3.98992519 5.80059811 7.0625 7.3125 C8.36728944 7.89266121 9.67773548 8.46085342 11 9 C8 10 8 10 5.73828125 9.00390625 C4.93777344 8.52824219 4.13726562 8.05257812 3.3125 7.5625 C2.50425781 7.08941406 1.69601563 6.61632813 0.86328125 6.12890625 C0.24839844 5.75636719 -0.36648438 5.38382813 -1 5 C-1 2 -1 2 0 0 Z " fill="#702021" transform="translate(12,53)"/>
<path d="M0 0 C1.125 3.75 1.125 3.75 0 6 C-0.07009733 7.47765166 -0.08435939 8.95834814 -0.0625 10.4375 C-0.05347656 11.21996094 -0.04445312 12.00242187 -0.03515625 12.80859375 C-0.02355469 13.53175781 -0.01195313 14.25492188 0 15 C0 17.83967231 -0.40267181 20.23735711 -1 23 C-1.33 23 -1.66 23 -2 23 C-2.05413245 20.10391407 -2.09373641 17.20884805 -2.125 14.3125 C-2.14175781 13.49587891 -2.15851563 12.67925781 -2.17578125 11.83789062 C-2.2114802 7.42907071 -2.07580814 4.01268424 0 0 Z " fill="#961B1C" transform="translate(2,18)"/>
<path d="M0 0 C0 0.66 0 1.32 0 2 C1.98 1.67 3.96 1.34 6 1 C2.89914429 3.06723714 2.27068319 3.24497423 -1.23046875 3.1953125 C-2.43413086 3.18564453 -2.43413086 3.18564453 -3.66210938 3.17578125 C-4.49548828 3.15902344 -5.32886719 3.14226562 -6.1875 3.125 C-7.03248047 3.11597656 -7.87746094 3.10695313 -8.74804688 3.09765625 C-10.83215243 3.07410703 -12.91611217 3.03823647 -15 3 C-15 2.67 -15 2.34 -15 2 C-14.22914062 1.93941406 -13.45828125 1.87882812 -12.6640625 1.81640625 C-11.15972656 1.69072266 -11.15972656 1.69072266 -9.625 1.5625 C-8.62726562 1.48128906 -7.62953125 1.40007813 -6.6015625 1.31640625 C-4.12756995 1.01551526 -2.44698344 0 0 0 Z " fill="#801818" transform="translate(38,61)"/>
<path d="M0 0 C0.89203125 0.10183594 1.7840625 0.20367187 2.703125 0.30859375 C3.37859375 0.39238281 4.0540625 0.47617187 4.75 0.5625 C2.75 2.5625 2.75 2.5625 0.1484375 2.7578125 C-0.84929688 2.73460937 -1.84703125 2.71140625 -2.875 2.6875 C-4.37933594 2.66042969 -4.37933594 2.66042969 -5.9140625 2.6328125 C-6.68492188 2.60960937 -7.45578125 2.58640625 -8.25 2.5625 C-8.58 1.9025 -8.91 1.2425 -9.25 0.5625 C-5.98086376 -0.46865279 -3.38958652 -0.4013984 0 0 Z " fill="#A2A0A0" transform="translate(31.25,60.4375)"/>
<path d="M0 0 C1 2 1 2 0.3125 4.9375 C-1.06192878 8.14450048 -2.06205603 9.23723362 -5 11 C-4.46884894 6.48521602 -2.63379708 3.65333143 0 0 Z " fill="#981819" transform="translate(16,24)"/>
<path d="M0 0 C0.33 0 0.66 0 1 0 C1.0825 1.093125 1.165 2.18625 1.25 3.3125 C1.62010299 7.03443943 1.62010299 7.03443943 4.0625 8.8125 C4.701875 9.204375 5.34125 9.59625 6 10 C6 10.66 6 11.32 6 12 C1.125 10.125 1.125 10.125 0 9 C-0.07179964 7.48071962 -0.08392007 5.95832518 -0.0625 4.4375 C-0.05347656 3.61121094 -0.04445312 2.78492188 -0.03515625 1.93359375 C-0.02355469 1.29550781 -0.01195313 0.65742188 0 0 Z " fill="#A8A2A2" transform="translate(1,24)"/>
<path d="M0 0 C5.625 -0.25 5.625 -0.25 9 2 C9 2.66 9 3.32 9 4 C2.25 3.125 2.25 3.125 0 2 C0 1.34 0 0.68 0 0 Z " fill="#B70304" transform="translate(14,46)"/>
<path d="M0 0 C0.66 0.33 1.32 0.66 2 1 C0.63016497 4.16115776 0.0109362 4.9927092 -3 7 C-3.1875 4.625 -3.1875 4.625 -3 2 C-2.01 1.34 -1.02 0.68 0 0 Z " fill="#DE4042" transform="translate(32,38)"/>
<path d="M0 0 C0.66 0 1.32 0 2 0 C1.125 4.75 1.125 4.75 0 7 C-0.99 7 -1.98 7 -3 7 C-1.125 2.25 -1.125 2.25 0 0 Z " fill="#DE373A" transform="translate(39,44)"/>
<path d="M0 0 C0.66 0 1.32 0 2 0 C2 0.66 2 1.32 2 2 C3.65 2 5.3 2 7 2 C7 2.33 7 2.66 7 3 C4.03 3.66 1.06 4.32 -2 5 C-1.34 3.35 -0.68 1.7 0 0 Z " fill="#8E1517" transform="translate(20,1)"/>
</svg>
